<svg viewBox="0 0 25 25.0003" fill="none" xmlns="http://www.w3.org/2000/svg">
  <path d="M19.1667 1.91667C17.2083 0.708333 14.9583 0 12.5 0V1.91667H19.1667Z" fill="#ED4C5C"/>
  <path d="M12.5 3.83317H21.5C20.7917 3.12484 20 2.45817 19.1667 1.9165H12.5V3.83317Z" fill="#F4F4F4"/>
  <path d="M12.5 5.74967H23.0417C22.5833 5.04134 22.0833 4.41634 21.5417 3.83301H12.5V5.74967Z" fill="#ED4C5C"/>
  <path d="M12.5 7.66699H24.0417C23.75 7.00033 23.4167 6.33366 23.0417 5.75033H12.5V7.66699Z" fill="#F4F4F4"/>
  <path d="M12.5 9.5835H24.6667C24.5 8.91683 24.2917 8.29183 24.0417 7.66683H12.5V9.5835Z" fill="#ED4C5C"/>
  <path d="M12.5 11.5415H24.9583C24.9167 10.8748 24.7917 10.2498 24.6667 9.62484H12.5V11.5415Z" fill="#F4F4F4"/>
  <path d="M24.9583 11.5413H12.5V12.4997H0C0 12.833 0 13.1247 0.0416666 13.458H24.9583C25 13.1247 25 12.833 25 12.4997C25 12.1663 25 11.833 24.9583 11.5413Z" fill="#ED4C5C"/>
  <path d="M0.333171 15.3753H24.6665C24.8332 14.7503 24.9165 14.1253 24.9582 13.4587H0.0415039C0.0831706 14.0837 0.166504 14.7503 0.333171 15.3753Z" fill="#F4F4F4"/>
  <path d="M0.958252 17.2918H24.0416C24.2916 16.6668 24.4999 16.0418 24.6666 15.3752H0.333252C0.499919 16.0418 0.708252 16.6668 0.958252 17.2918Z" fill="#ED4C5C"/>
  <path d="M1.95825 19.2083H23.0416C23.4166 18.5833 23.7499 17.9583 24.0416 17.2917H0.958252C1.24992 17.9583 1.58325 18.5833 1.95825 19.2083Z" fill="#F4F4F4"/>
  <path d="M3.45841 21.1248H21.5417C22.0834 20.5415 22.6251 19.8748 23.0417 19.2082H1.95841C2.37508 19.9165 2.91675 20.5415 3.45841 21.1248Z" fill="#ED4C5C"/>
  <path d="M5.79158 23.0413H19.2083C20.0833 22.4997 20.8333 21.833 21.5416 21.1247H3.45825C4.16659 21.8747 4.95825 22.4997 5.79158 23.0413Z" fill="#F4F4F4"/>
  <path d="M12.5002 25.0003C14.9585 25.0003 17.2502 24.292 19.2085 23.042H5.79183C7.75016 24.292 10.0418 25.0003 12.5002 25.0003Z" fill="#ED4C5C"/>
  <path d="M5.83333 1.91667C4.95833 2.45833 4.16667 3.125 3.45833 3.83333C2.875 4.41667 2.375 5.08333 1.95833 5.75C1.58333 6.375 1.20833 7 0.958333 7.66667C0.708333 8.29167 0.5 8.91667 0.333333 9.58333C0.166667 10.2083 0.0833333 10.8333 0.0416666 11.5C0 11.8333 0 12.1667 0 12.5H12.5V0C10.0417 0 7.79167 0.708333 5.83333 1.91667Z" fill="#428BC1"/>
  <path d="M9.5835 0.416667L9.79183 1.04167H10.4168L9.91683 1.45833L10.0835 2.08333L9.5835 1.70833L9.0835 2.08333L9.25016 1.45833L8.75016 1.04167H9.37516L9.5835 0.416667ZM11.2502 2.91667L11.4585 3.54167H12.0835L11.5835 3.95833L11.7502 4.58333L11.2502 4.20833L10.7502 4.58333L10.9168 3.95833L10.4168 3.54167H11.0418L11.2502 2.91667ZM7.91683 2.91667L8.12516 3.54167H8.75016L8.25016 3.95833L8.41683 4.58333L7.91683 4.20833L7.41683 4.58333L7.5835 3.95833L7.0835 3.54167H7.7085L7.91683 2.91667ZM9.5835 5.41667L9.79183 6.04167H10.4168L9.91683 6.45833L10.0835 7.08333L9.5835 6.70833L9.0835 7.08333L9.25016 6.45833L8.75016 6.04167H9.37516L9.5835 5.41667ZM6.25016 5.41667L6.4585 6.04167H7.0835L6.5835 6.45833L6.75016 7.08333L6.25016 6.70833L5.75016 7.08333L5.91683 6.45833L5.41683 6.04167H6.04183L6.25016 5.41667ZM2.91683 5.41667L3.12516 6.04167H3.75016L3.25016 6.45833L3.41683 7.08333L2.91683 6.70833L2.41683 7.08333L2.5835 6.45833L2.0835 6.04167H2.7085L2.91683 5.41667ZM11.2502 7.91667L11.4585 8.54167H12.0835L11.5835 8.95833L11.7502 9.58333L11.2502 9.20833L10.7502 9.58333L10.9168 8.95833L10.4168 8.54167H11.0418L11.2502 7.91667ZM7.91683 7.91667L8.12516 8.54167H8.75016L8.25016 8.95833L8.41683 9.58333L7.91683 9.20833L7.41683 9.58333L7.5835 8.95833L7.0835 8.54167H7.7085L7.91683 7.91667ZM4.5835 7.91667L4.79183 8.54167H5.41683L4.91683 8.95833L5.0835 9.58333L4.5835 9.20833L4.0835 9.58333L4.25016 8.95833L3.75016 8.54167H4.37516L4.5835 7.91667ZM9.5835 10.4167L9.79183 11.0417H10.4168L9.91683 11.4583L10.0835 12.0833L9.5835 11.7083L9.0835 12.0833L9.25016 11.4583L8.75016 11.0417H9.37516L9.5835 10.4167ZM6.25016 10.4167L6.4585 11.0417H7.0835L6.5835 11.4583L6.75016 12.0833L6.25016 11.7083L5.75016 12.0833L5.91683 11.4583L5.41683 11.0417H6.04183L6.25016 10.4167ZM2.91683 10.4167L3.12516 11.0417H3.75016L3.25016 11.4583L3.41683 12.0833L2.91683 11.7083L2.41683 12.0833L2.5835 11.4583L2.0835 11.0417H2.7085L2.91683 10.4167ZM4.0835 4.58333L4.5835 4.20833L5.0835 4.58333L4.87516 3.95833L5.37516 3.54167H4.75016L4.5835 2.91667L4.37516 3.54167H3.79183L4.29183 3.91667L4.0835 4.58333ZM0.750163 9.58333L1.25016 9.20833L1.75016 9.58333L1.54183 8.95833L2.04183 8.54167H1.4585L1.25016 7.91667L1.04183 8.54167H0.625163C0.625163 8.58333 0.583496 8.625 0.583496 8.66667L0.916829 8.91667L0.750163 9.58333Z" fill="#F4F4F4"/>
</svg>
